<svg xmlns="http://www.w3.org/2000/svg" viewBox="0 0 250 250">
  <g id="emoji12">
    <rect id="head_12" x="22.58" y="22.58" width="204.85" height="204.85" style="fill: #939598;stroke: #231f20;stroke-miterlimit: 10"/>
    <polygon id="nose_12" points="125.84 140.47 97.83 111.2 153.01 111.2 125.84 140.47" style="fill: #231f20;stroke: #fff;stroke-miterlimit: 10"/>
    <circle id="left_eye_12" cx="73.58" cy="77.34" r="33.86" style="fill: #fff;stroke: #fff;stroke-miterlimit: 10"/>
    <circle id="right_eye_12" cx="176.84" cy="77.34" r="33.86" style="fill: #fff;stroke: #fff;stroke-miterlimit: 10"/>
    <circle id="left_eyeball_12" cx="72.32" cy="96.99" r="15.47" style="fill: #231f20;stroke: #fff;stroke-miterlimit: 10"/>
    <circle id="right_eyeball_12" cx="175.59" cy="96.99" r="15.47" style="fill: #231f20;stroke: #fff;stroke-miterlimit: 10"/>
    <rect id="left_ear_12" y="66.89" width="22.58" height="60.2" style="fill: #2e3192;stroke: #231f20;stroke-miterlimit: 10"/>
    <rect id="right_ear_12" x="227.42" y="66.89" width="22.58" height="60.2" style="fill: #2e3192;stroke: #231f20;stroke-miterlimit: 10"/>
    <g id="mouth_12">
      <rect id="mouth_center_12" x="67.13" y="155.6" width="123.75" height="28.47" style="fill: #231f20;stroke: #231f20;stroke-miterlimit: 10"/>
      <rect id="mouth_left_12" x="46.44" y="166.29" width="47.01" height="26.66" transform="translate(249.56 109.68) rotate(90)" style="fill: #231f20;stroke: #231f20;stroke-miterlimit: 10"/>
      <rect id="mouth_r_12" x="167.55" y="166.29" width="47.01" height="26.66" transform="translate(380.97 -1.2) rotate(93.17)" style="fill: #231f20;stroke: #231f20;stroke-miterlimit: 10"/>
    </g>
    <g id="termometer">
      <rect id="termometer_glass_12" x="129.4" y="113.59" width="125.82" height="35.12" rx="10.72" transform="translate(-36.41 174.39) rotate(-45)" style="fill: #fff;stroke: #231f20;stroke-miterlimit: 10"/>
      <rect id="termometer_status_12" x="136.46" y="130.64" width="77.61" height="35.12" rx="10.72" transform="translate(-53.46 167.33) rotate(-45)" style="fill: #ed1c24;stroke: #231f20;stroke-miterlimit: 10"/>
    </g>
  </g>
</svg>
