<svg xmlns="http://www.w3.org/2000/svg" viewBox="0 0 250 250">
  <g id="emoji8">
    <rect id="head_8" x="22.58" y="16.61" width="204.85" height="204.85" style="fill: #939598;stroke: #231f20;stroke-miterlimit: 10"/>
    <polygon id="nose_8" points="125 105.24 153.01 134.5 97.83 134.5 125 105.24" style="fill: #2e3192;stroke: #fff;stroke-miterlimit: 10"/>
    <circle id="left_eye_8" cx="73.58" cy="71.38" r="33.86" style="fill: #fff;stroke: #fff;stroke-miterlimit: 10"/>
    <circle id="right_eye_8" cx="176.84" cy="71.38" r="33.86" style="fill: #fff;stroke: #fff;stroke-miterlimit: 10"/>
    <rect id="golden_tooth_8" x="227.42" y="60.93" width="22.58" height="60.2" style="fill: #fff200;stroke: #231f20;stroke-miterlimit: 10"/>
    <rect id="tooth_8" x="62.92" y="151.25" width="20.48" height="45.15" style="fill: #fff;stroke: #231f20;stroke-miterlimit: 10;stroke-width: 2px"/>
    <rect id="tooth_8-2" data-name="tooth_8" x="84.77" y="181.35" width="20.48" height="45.15" style="fill: #fff;stroke: #231f20;stroke-miterlimit: 10;stroke-width: 2px"/>
    <rect id="tooth_8-3" data-name="tooth_8" x="104.93" y="151.25" width="20.48" height="45.15" style="fill: #fff;stroke: #231f20;stroke-miterlimit: 10;stroke-width: 2px"/>
    <rect id="tooth_8-4" data-name="tooth_8" x="125.42" y="151.25" width="20.48" height="45.15" style="fill: #fff;stroke: #231f20;stroke-miterlimit: 10;stroke-width: 2px"/>
    <rect id="mouth_empty_8" x="142.77" y="151.25" width="20.48" height="45.15" style="fill: #231f20;stroke: #231f20;stroke-miterlimit: 10;stroke-width: 2px"/>
    <rect id="mouth_empty_8-2" data-name="mouth_empty_8" x="84.77" y="151.25" width="20.48" height="45.15" style="fill: #231f20;stroke: #231f20;stroke-miterlimit: 10;stroke-width: 2px"/>
    <rect id="tooth_8-5" data-name="tooth_8" x="167.43" y="151.25" width="20.48" height="45.15" style="fill: #fff;stroke: #231f20;stroke-miterlimit: 10;stroke-width: 2px"/>
    <rect id="falling_tooth_8" x="83.93" y="188.87" width="20.48" height="45.15" style="fill: #fff;stroke: #231f20;stroke-miterlimit: 10;stroke-width: 2px"/>
    <circle id="left_eyeball_8" cx="56.44" cy="81.43" r="15.47" style="fill: #231f20;stroke: #fff;stroke-miterlimit: 10"/>
    <circle id="right_eyeball_8" cx="192.31" cy="55.91" r="15.47" style="fill: #231f20;stroke: #fff;stroke-miterlimit: 10"/>
    <rect id="left_ear_8" y="60.93" width="22.58" height="60.2" style="fill: #39b54a;stroke: #231f20;stroke-miterlimit: 10"/>
  </g>
</svg>
