<svg xmlns="http://www.w3.org/2000/svg" viewBox="0 0 250 250">
  <g id="emoji4">
    <rect id="head_4" x="23.62" y="23.52" width="203.91" height="203.91" style="fill: #939598;stroke: #231f20;stroke-miterlimit: 10"/>
    <polygon id="nose_4" points="126.41 142.12 98.53 112.99 153.46 112.99 126.41 142.12" style="fill: #231f20;stroke: #fff;stroke-miterlimit: 10"/>
    <g id="mouth_4">
      <rect id="mouth" x="65.86" y="150.44" width="123.18" height="44.94" style="fill: #231f20"/>
      <rect x="57.95" y="150.44" width="32.46" height="59.09" style="fill: #231f20"/>
      <rect x="160.74" y="150.44" width="32.46" height="59.09" style="fill: #231f20"/>
    </g>
    <circle id="left_eye_4" cx="74.39" cy="78.04" r="33.71" style="fill: #fff;stroke: #fff;stroke-miterlimit: 10"/>
    <circle id="right_eye_4" cx="177.18" cy="78.04" r="33.71" style="fill: #fff;stroke: #fff;stroke-miterlimit: 10"/>
    <rect id="left_ear_4" x="1.15" y="67.63" width="22.47" height="59.92" style="fill: #2e3192;stroke: #231f20;stroke-miterlimit: 10"/>
    <rect id="right_ear_4" x="227.53" y="67.63" width="22.47" height="59.92" style="fill: #2e3192;stroke: #231f20;stroke-miterlimit: 10"/>
    <polygon id="right_eyeball_4" points="177.44 112.16 159.79 83.03 194.56 83.03 177.44 112.16" style="fill: #231f20;stroke: #fff;stroke-miterlimit: 10"/>
    <polygon id="left_eyeball_4" points="74.44 111.97 56.8 82.84 91.56 82.84 74.44 111.97" style="fill: #231f20;stroke: #fff;stroke-miterlimit: 10"/>
        <path id="left_tear_4" d="M41.55,146.4a16.41,16.41,0,1,0,32.81,0c0-9.06-16.41-21.24-16.41-34.66C58,125.16,41.55,137.34,41.55,146.4Z" style="fill: #27aae1"/>
    <path id="right_tear_4" d="M176.79,147.65a16.41,16.41,0,1,0,32.81,0c0-9.06-16.4-21.24-16.4-34.66C193.2,126.41,176.79,138.59,176.79,147.65Z" style="fill: #27aae1"/>
  </g>
</svg>
