<svg xmlns="http://www.w3.org/2000/svg" viewBox="0 0 250 250">
  <g id="emoji7">
    <rect id="head_7" x="71.49" y="65.42" width="117.4" height="117.4" style="fill: #939598;stroke: #231f20;stroke-miterlimit: 10"/>
    <polygon id="nose_7" points="130.19 116.21 146.25 132.98 114.62 132.98 130.19 116.21" style="fill: #231f20;stroke: #fff;stroke-miterlimit: 10"/>
    <rect id="mouth_7" x="94.97" y="149.04" width="70.92" height="12.94" style="fill: #231f20;stroke: #fff;stroke-miterlimit: 10"/>
    <g id="right_ear_smoke_7">
      <path d="M203.88,98.43c.1.17,3.65-1.34,7.12-4.24a19.54,19.54,0,0,0,6.23-8.31c.16-.44.26-.77.36-1.11,1.75-6,.91-10.37,1.64-16.51.56-4.81.93-7.93,3-8.87s5.62.75,7.26,3.13c3.35,4.84-.51,12.5-1.72,14.91C220.35,92.23,203.66,98.06,203.88,98.43Z" style="fill: #58595b;stroke: #fff;stroke-miterlimit: 10"/>
      <path d="M197.25,108.9c0,.21,3.83.68,8.29-.08a19.65,19.65,0,0,0,9.56-4c.36-.3.61-.54.87-.79,4.53-4.31,6-8.5,9.71-13.45,2.9-3.88,4.79-6.39,7.08-6.14s4.48,3.47,4.7,6.35c.46,5.86-6.72,10.55-9,12C214.6,111.81,197.25,108.47,197.25,108.9Z" style="fill: #58595b;stroke: #fff;stroke-miterlimit: 10"/>
      <path d="M202.85,111.87c0,.19,3.65,1.33,8.18,1.37a19.59,19.59,0,0,0,10.12-2.32c.41-.23.69-.42,1-.62,5.22-3.46,7.4-7.32,11.92-11.55,3.54-3.3,5.84-5.44,8-4.8s3.81,4.2,3.53,7.08c-.58,5.85-8.47,9.21-11,10.26C219.43,117.77,202.93,111.44,202.85,111.87Z" style="fill: #58595b;stroke: #fff;stroke-miterlimit: 10"/>
      <path d="M195.72,96.08c.1.17,3.65-1.34,7.13-4.24a19.74,19.74,0,0,0,6.23-8.31c.15-.44.25-.76.35-1.11,1.75-6,.91-10.37,1.64-16.51.56-4.81.93-7.93,3-8.87s5.62.75,7.26,3.13c3.35,4.84-.51,12.5-1.72,14.91C212.19,89.88,195.5,95.71,195.72,96.08Z" style="fill: #58595b;stroke: #fff;stroke-miterlimit: 10"/>
    </g>
    <g id="left_ear_smoke_7">
      <path d="M52.52,92.79c-.1.18-3.45-1.34-6.74-4.24a19.74,19.74,0,0,1-5.89-8.31c-.15-.44-.24-.76-.33-1.11-1.66-6-.86-10.37-1.55-16.51-.54-4.81-.88-7.93-2.87-8.87s-5.31.75-6.87,3.13c-3.16,4.84.49,12.5,1.64,14.91C37,86.59,52.73,92.42,52.52,92.79Z" style="fill: #58595b;stroke: #fff;stroke-miterlimit: 10"/>
      <path d="M44.81,95.14c-.1.17-3.45-1.34-6.74-4.24a19.64,19.64,0,0,1-5.89-8.31c-.15-.44-.24-.76-.34-1.11C30.18,75.47,31,71.11,30.3,65c-.54-4.81-.89-7.93-2.87-8.87s-5.31.75-6.87,3.13c-3.16,4.84.49,12.5,1.63,14.91C29.24,88.94,45,94.77,44.81,95.14Z" style="fill: #58595b;stroke: #fff;stroke-miterlimit: 10"/>
      <path d="M51.07,105.62c0,.2-3.61.67-7.83-.09a18,18,0,0,1-9-4c-.34-.3-.58-.54-.82-.79-4.29-4.31-5.67-8.5-9.18-13.45-2.75-3.88-4.53-6.39-6.7-6.14s-4.23,3.47-4.45,6.35c-.43,5.86,6.36,10.55,8.5,12C34.67,108.53,51.08,105.19,51.07,105.62Z" style="fill: #58595b;stroke: #fff;stroke-miterlimit: 10"/>
      <path d="M45.78,108.58c0,.2-3.45,1.33-7.73,1.37a17.74,17.74,0,0,1-9.57-2.32c-.39-.23-.66-.42-.94-.62-4.94-3.45-7-7.32-11.27-11.54-3.35-3.31-5.52-5.45-7.6-4.81s-3.6,4.2-3.33,7.08c.54,5.85,8,9.21,10.35,10.26C30.11,114.48,45.71,108.15,45.78,108.58Z" style="fill: #58595b;stroke: #fff;stroke-miterlimit: 10"/>
    </g>
    <rect id="left_eye_brow_7" x="78.44" y="58.95" width="38.1" height="12.94" transform="translate(25.33 -27.2) rotate(18.22)" style="fill: #231f20;stroke: #fff;stroke-miterlimit: 10"/>
    <rect id="right_eye_brow_7" x="137.61" y="58.95" width="38.1" height="12.94" transform="translate(325.7 81.13) rotate(162.65)" style="fill: #231f20;stroke: #fff;stroke-miterlimit: 10"/>
    <circle id="left_eye_7" cx="100.72" cy="96.8" r="19.41" style="fill: #be1e2d;stroke: #be1e2d;stroke-miterlimit: 10"/>
    <circle id="right_eye_7" cx="159.9" cy="96.8" r="19.41" style="fill: #be1e2d;stroke: #be1e2d;stroke-miterlimit: 10"/>
    <rect id="left_ear_7" x="58.55" y="90.81" width="12.94" height="34.5" style="fill: #ed1c24;stroke: #231f20;stroke-miterlimit: 10"/>
    <rect id="right_ear_7" x="188.89" y="90.81" width="12.94" height="34.5" style="fill: #ed1c24;stroke: #231f20;stroke-miterlimit: 10"/>
    <polygon id="left_eyeball_7" points="100.48 90.81 116.54 107.59 84.91 107.59 100.48 90.81" style="fill: #8b5e3c;stroke: #fff;stroke-miterlimit: 10"/>
    <polygon id="right_eyeball_7" points="158.94 89.86 175 106.63 143.37 106.63 158.94 89.86" style="fill: #754c29;stroke: #fff;stroke-miterlimit: 10"/>
  </g>
</svg>
