<svg xmlns="http://www.w3.org/2000/svg" viewBox="0 0 250 250">
  <g id="emoji6">
    <rect id="head_6" x="22.58" y="24.16" width="204.85" height="204.85" style="fill: #939598;stroke: #231f20;stroke-miterlimit: 10"/>
    <polygon id="nose_6" points="125.84 142.05 97.83 112.79 153.01 112.79 125.84 142.05" style="fill: #231f20;stroke: #fff;stroke-miterlimit: 10"/>
    <circle id="left_eye_6" cx="73.58" cy="78.93" r="33.86" style="fill: #fff;stroke: #fff;stroke-miterlimit: 10"/>
    <circle id="right_eye_6" cx="176.84" cy="78.93" r="33.86" style="fill: #fff;stroke: #fff;stroke-miterlimit: 10"/>
    <circle id="left_eyeball_6" cx="72.32" cy="78.92" r="33.86" style="fill: #6d6e71;stroke: #fff;stroke-miterlimit: 10"/>
    <circle id="right_eyeball_6" cx="175.59" cy="78.77" r="33.7" style="fill: #6d6e71;stroke: #fff;stroke-miterlimit: 10"/>
    <rect id="left_ear_6" y="68.48" width="22.58" height="60.2" style="fill: #2e3192;stroke: #231f20;stroke-miterlimit: 10"/>
    <rect id="right_ear_6" x="227.42" y="68.48" width="22.58" height="60.2" style="fill: #2e3192;stroke: #231f20;stroke-miterlimit: 10"/>
    <circle id="mouth_6" cx="125.42" cy="180.95" r="22.78" style="fill: #231f20;stroke: #fff;stroke-miterlimit: 10"/>
    <g id="sleep_6">
      <path d="M179.56,149.41v1.76a2.7,2.7,0,0,1-.51,1.57l-19.83,27.85h20v3.86H153v-1.86a2.43,2.43,0,0,1,.46-1.39l19.86-27.93H153.94v-3.86Z" style="fill: #fff200"/>
      <path d="M208.22,134v1.76a2.69,2.69,0,0,1-.51,1.56l-19.83,27.85h20V169H181.67v-1.86a2.36,2.36,0,0,1,.46-1.39L202,137.82H182.6V134Z" style="fill: #fff200"/>
      <path d="M236.88,118.07v1.76a2.63,2.63,0,0,1-.52,1.56l-19.83,27.85h20v3.87H210.32v-1.86a2.4,2.4,0,0,1,.47-1.4l19.85-27.92H211.25v-3.86Z" style="fill: #fff200"/>
      <path d="M233.51,163.22V165a2.67,2.67,0,0,1-.51,1.56l-19.83,27.85h20v3.87H207V196.4a2.41,2.41,0,0,1,.46-1.4l19.86-27.92H207.89v-3.86Z" style="fill: #fff200"/>
    </g>
  </g>
</svg>
