<svg xmlns="http://www.w3.org/2000/svg" viewBox="0 0 250 250">
  <g id="emoji9">
    <rect id="head_9" x="23.86" y="16.22" width="203.7" height="203.7" style="fill: #939598;stroke: #231f20;stroke-miterlimit: 10"/>
    <polygon id="nose_9" points="126.54 133.45 98.68 104.35 153.56 104.35 126.54 133.45" style="fill: #231f20;stroke: #fff;stroke-miterlimit: 10"/>
    <rect id="mouth_9" x="66.26" y="150.08" width="123.05" height="44.9" style="fill: #231f20;stroke: #fff;stroke-miterlimit: 10"/>
    <rect id="left_ear_9" x="1.41" y="60.29" width="22.45" height="59.86" style="fill: #2e3192;stroke: #231f20;stroke-miterlimit: 10"/>
    <rect id="right_ear_9" x="227.55" y="60.29" width="22.45" height="59.86" style="fill: #2e3192;stroke: #231f20;stroke-miterlimit: 10"/>
    <rect id="tooth_9" x="66.26" y="150.08" width="23.28" height="44.9" style="fill: #fff;stroke: #231f20;stroke-miterlimit: 10;stroke-width: 2px"/>
    <rect id="tooth_9-2" data-name="tooth_9" x="87.04" y="149.68" width="23.28" height="44.9" style="fill: #fff;stroke: #231f20;stroke-miterlimit: 10;stroke-width: 2px"/>
    <rect id="tooth_9-3" data-name="tooth_9" x="113.23" y="149.68" width="23.28" height="44.9" style="fill: #fff;stroke: #231f20;stroke-miterlimit: 10;stroke-width: 2px"/>
    <rect id="tooth_9-4" data-name="tooth_9" x="136.93" y="149.68" width="23.28" height="44.9" style="fill: #fff;stroke: #231f20;stroke-miterlimit: 10;stroke-width: 2px"/>
    <rect id="tooth_9-5" data-name="tooth_9" x="165.2" y="150.08" width="23.28" height="44.9" style="fill: #fff;stroke: #231f20;stroke-miterlimit: 10;stroke-width: 2px"/>
       <polyline id="left_eye_9" points="55.5 31.98 77.9 44.13 100.29 56.27 55.5 84.36" style="fill: none;stroke: #231f20;stroke-miterlimit: 10;stroke-width: 6px"/>
    <polyline id="right_eye_9" points="197.54 31.98 173.72 44.13 149.89 56.27 197.54 84.36" style="fill: none;stroke: #231f20;stroke-miterlimit: 10;stroke-width: 6px"/>
  </g>
</svg>
