<svg xmlns="http://www.w3.org/2000/svg" viewBox="0 0 250 250">
  <g id="emoji2">
    <rect id="head_2" x="22.99" y="22.08" width="204.85" height="204.85" style="fill: #939598;stroke: #231f20;stroke-miterlimit: 10"/>
    <polygon id="nose_2" points="125.42 110.71 153.43 139.97 98.24 139.97 125.42 110.71" style="fill: #2e3192;stroke: #fff;stroke-miterlimit: 10"/>
    <circle id="left_eye_2" cx="74" cy="76.85" r="33.86" style="fill: #fff;stroke: #fff;stroke-miterlimit: 10"/>
    <circle id="right_eye_2" cx="177.26" cy="76.85" r="33.86" style="fill: #fff;stroke: #fff;stroke-miterlimit: 10"/>
    <rect id="left_ear_2" x="0.42" y="66.4" width="22.58" height="60.2" style="fill: #39b54a;stroke: #231f20;stroke-miterlimit: 10"/>
    <rect id="right_ear_2" x="227.84" y="66.4" width="22.58" height="60.2" style="fill: #fff200;stroke: #231f20;stroke-miterlimit: 10"/>
    <polygon id="left_eyeball_2" points="73.58 67.23 101.59 96.5 46.41 96.5 73.58 67.23" style="fill: #231f20;stroke: #fff;stroke-miterlimit: 10"/>
    <polygon id="right_eyeball_2" points="177.66 64.7 205.67 93.97 150.48 93.97 177.66 64.7" style="fill: #231f20;stroke: #fff;stroke-miterlimit: 10"/>
    <rect id="tooth_2" x="63.34" y="156.72" width="20.48" height="45.15" style="fill: #fff;stroke: #231f20;stroke-miterlimit: 10;stroke-width: 2px"/>
    <rect id="tooth_2-2" data-name="tooth_2" x="84.87" y="156.72" width="20.48" height="45.15" style="fill: #fff200;stroke: #231f20;stroke-miterlimit: 10;stroke-width: 2px"/>
    <rect id="tooth_2-3" data-name="tooth_2" x="105.35" y="156.72" width="20.48" height="45.15" style="fill: #fff;stroke: #231f20;stroke-miterlimit: 10;stroke-width: 2px"/>
    <rect id="tooth_2-4" data-name="tooth_2" x="125.84" y="156.72" width="20.48" height="45.15" style="fill: #ef4136;stroke: #231f20;stroke-miterlimit: 10;stroke-width: 2px"/>
    <rect id="tooth_2-5" data-name="tooth_2" x="147.37" y="156.72" width="20.48" height="45.15" style="fill: #fff;stroke: #231f20;stroke-miterlimit: 10;stroke-width: 2px"/>
    <rect id="tooth_2-6" data-name="tooth_2" x="167.85" y="156.72" width="20.48" height="45.15" style="fill: #2e3192;stroke: #231f20;stroke-miterlimit: 10;stroke-width: 2px"/>
  </g>
</svg>
