<svg id="logo" xmlns="http://www.w3.org/2000/svg" viewBox="0 0 441 39.06">
  <g id="logo_paths">
    <path class="logo_path" id="logo_1" data-name="#logo_1" d="M29.5,31.29V27.38h7.81v3.91a1.73,1.73,0,0,0,2,2V39.1Q29.5,39.1,29.5,31.29ZM49,17.62H37.31l-3.9-5.86H49Zm2,13.67V11.76H58.8V31.29q0,7.82-9.77,7.81H41.22V33.24H49A1.73,1.73,0,0,0,51,31.29Z" transform="translate(-29.5 -5.9)" style="fill: #fff"/>
    <path class="logo_path" id="logo_2" d="M90.05,17.62H62.7l-3.9-5.86H90.05ZM62.7,19.57h7.82V33.24H90.05V39.1H62.7Zm27.35,9.77H78.33l-5.86-5.86H90.05Z" transform="translate(-29.5 -5.9)" style="fill: #fff"/>
    <path class="logo_path" id="logo_3" d="M113.49,17.62H94l-3.9-5.86h23.44q9.77,0,9.76,7.81v2q0,6.27-6.29,7.5l6.29,10.07h-9.76l-9.77-15.62h9.77a1.72,1.72,0,0,0,2-1.95v-2A1.72,1.72,0,0,0,113.49,17.62ZM101.77,39.1H94V19.57h7.82Z" transform="translate(-29.5 -5.9)" style="fill: #fff"/>
    <path class="logo_path" id="logo_4" d="M127.16,11.76H135V39.1h-7.81Z" transform="translate(-29.5 -5.9)" style="fill: #fff"/>
    <path class="logo_path" id="logo_5" d="M166.22,17.62H138.88L135,11.76h31.25Zm-27.34,1.95h7.81V33.24h19.53V39.1H138.88Zm27.34,9.77H154.5l-5.86-5.86h17.58Z" transform="translate(-29.5 -5.9)" style="fill: #fff"/>
    <path class="logo_path" id="logo_6" d="M177.94,31.29h-7.81V11.76h7.81Zm-7.81,2h27.34V39.1H170.13Z" transform="translate(-29.5 -5.9)" style="fill: #fff"/>
    <path class="logo_path" id="logo_7" d="M230.83,17.62H211.3l-3.91-5.86h23.44q9.76,0,9.77,7.81v2a7.65,7.65,0,0,1-1.47,4.88,7.63,7.63,0,0,1,1.47,4.88q0,7.82-9.77,7.81h-9.77V33.24h9.77a1.72,1.72,0,0,0,1.95-2,1.72,1.72,0,0,0-1.95-1.95h-9.77V23.48h9.77a1.72,1.72,0,0,0,1.95-1.95v-2A1.72,1.72,0,0,0,230.83,17.62ZM219.11,39.1H211.3V19.57h7.81Z" transform="translate(-29.5 -5.9)" style="fill: #fff"/>
    <path class="logo_path" id="logo_8" d="M271.85,17.62H244.5l-3.9-5.86h31.25ZM244.5,19.57h7.81V33.24h19.54V39.1H244.5Zm27.35,9.77H260.13l-5.86-5.86h17.58Z" transform="translate(-29.5 -5.9)" style="fill: #fff"/>
    <path class="logo_path" id="logo_9" d="M275.75,5.9l29.3,29.3V45l-29.3-29.29Zm7.81,20.31V39.1h-7.81V18.4Zm13.68-1.56V11.76h7.81v20.7Z" transform="translate(-29.5 -5.9)" style="fill: #fff"/>
    <path class="logo_path" id="logo_10" d="M321.47,26.76,315.21,39.1h-8.4l10.58-20.43Zm-2.89-10.39,4.05-7.79L338.45,39.1h-8.4Z" transform="translate(-29.5 -5.9)" style="fill: #fff"/>
    <path class="logo_path" id="logo_11" d="M351.49,34.49l-4,7.8L331.63,11.76H340ZM348.6,24.1l6.27-12.34h8.4L352.69,32.19Z" transform="translate(-29.5 -5.9)" style="fill: #fff"/>
    <path class="logo_path" id="logo_12" d="M365,11.76h7.81V39.1H365Z" transform="translate(-29.5 -5.9)" style="fill: #fff"/>
    <path class="logo_path" id="logo_13" d="M396.28,17.62H376.75l-3.91-5.86h23.44q9.77,0,9.76,7.81V31.29q0,7.82-9.76,7.81h-9.77V33.24h9.77a1.72,1.72,0,0,0,2-2V19.57A1.72,1.72,0,0,0,396.28,17.62ZM384.56,39.1h-7.81V19.57h7.81Z" transform="translate(-29.5 -5.9)" style="fill: #fff"/>
    <path class="logo_path" id="logo_14" d="M437.29,17.62H410L406,11.76h31.25ZM410,19.57h7.81V33.24h19.53V39.1H410Zm27.34,9.77H425.58l-5.86-5.86h17.57Z" transform="translate(-29.5 -5.9)" style="fill: #fff"/>
    <path class="logo_path" id="logo_15" d="M451,11.76H470.5v5.86H451a1.73,1.73,0,0,0-2,1.95v2a1.73,1.73,0,0,0,2,1.95h3.9v5.86H451q-9.77,0-9.77-7.81v-2Q441.2,11.76,451,11.76Zm9.76,27.34H441.2V33.24h19.53a1.73,1.73,0,0,0,2-2,1.73,1.73,0,0,0-2-1.95h-3.9V23.48h3.9q9.76,0,9.77,7.81T460.73,39.1Z" transform="translate(-29.5 -5.9)" style="fill: #fff"/>
  </g>
</svg>
