<svg id="aef98100-3199-4c1a-a633-636d3852fb25" data-name="Layer 1" xmlns="http://www.w3.org/2000/svg" viewBox="0 0 165.77 325.84">
  <polygon points="30.61 182.83 41.91 257.75 50.61 272.18 72.83 266.05 112.05 269.23 119.85 273.47 135.16 201.21 135.16 160.23 30.61 162.91 30.61 182.83" style="fill: #f1f2f2"/>
  <rect x="44.74" y="221.76" width="74.04" height="46.71" style="fill: #f1f2f2"/>
  <g>
    <path d="M124.16,278.21c0,13.74,19.18,53.48,15.79,24.89s15.78-11.15,15.78-24.89-7.07-24.9-15.78-24.9S124.16,264.46,124.16,278.21Z" transform="translate(-67.12)" style="fill: #f7941d"/>
    <path d="M159.73,284.31c0,16.31-18.78,63.46-15.46,29.53s-15.45-13.22-15.45-29.53,6.92-29.54,15.45-29.54S159.73,268,159.73,284.31Z" transform="translate(-67.12)" style="fill: #f7941d"/>
    <path d="M173.58,279.67c0,13.74-18.78,53.48-15.45,24.89s-15.45-11.15-15.45-24.89,6.91-24.9,15.45-24.9S173.58,265.92,173.58,279.67Z" transform="translate(-67.12)" style="fill: #f7941d"/>
  </g>
  <g>
    <g>
      <path d="M97.72,211.91A83.07,83.07,0,0,0,70.57,300a83.16,83.16,0,0,1,35.61-46.69,300.78,300.78,0,0,1-8.46-41.39Z" transform="translate(-67.12)" style="fill: #ed1c24"/>
      <path d="M202.28,211.91h0a300.78,300.78,0,0,1-8.46,41.39A83.16,83.16,0,0,1,229.43,300a83.07,83.07,0,0,0-27.15-88.09Z" transform="translate(-67.12)" style="fill: #ed1c24"/>
      <path d="M161.07,281.06h21.19v-8.88a125.83,125.83,0,0,0-17.37-2.95A70.72,70.72,0,0,1,161.07,281.06Z" transform="translate(-67.12)" style="fill: #2b3990"/>
      <path d="M120.18,271.6v9.46h18.75a71.77,71.77,0,0,1-3.83-11.84A125.83,125.83,0,0,0,120.18,271.6Z" transform="translate(-67.12)" style="fill: #2b3990"/>
      <path d="M150,268.47a146.54,146.54,0,0,0-14.9.75,71.77,71.77,0,0,0,3.83,11.84h22.14a70.72,70.72,0,0,0,3.82-11.83A146.14,146.14,0,0,0,150,268.47Z" transform="translate(-67.12)" style="fill: #be1e2d"/>
      <g>
        <g>
          <path d="M133.75,259.91c-.07-1.15-.12-2.31-.12-3.49A58.61,58.61,0,0,1,135.49,242a82.23,82.23,0,0,0-29.31,11.27h0A200.73,200.73,0,0,0,113,273.47c2.28-.69,4.67-1.31,7.15-1.87h0V259.91Z" transform="translate(-67.12)" style="fill: #f1f2f2"/>
          <path d="M166.37,256.42c0,1.18-.05,2.34-.12,3.49h16v12.27h0c1.62.39,3.18.83,4.71,1.29a200.73,200.73,0,0,0,6.85-20.15h0A82.23,82.23,0,0,0,164.51,242,58.61,58.61,0,0,1,166.37,256.42Z" transform="translate(-67.12)" style="fill: #f1f2f2"/>
          <g>
            <path d="M202.28,211.91a414.14,414.14,0,0,0,3.66-55.69c0-24.13-4.39-47-10.7-67.39A112.35,112.35,0,0,1,150,98a112.35,112.35,0,0,1-45.24-9.12c-6.31,20.41-10.7,43.26-10.7,67.39a414.14,414.14,0,0,0,3.66,55.69,82.81,82.81,0,0,1,104.56,0Z" transform="translate(-67.12)" style="fill: #f1f2f2"/>
            <path d="M202.28,211.91a82.81,82.81,0,0,0-104.56,0h0a300.78,300.78,0,0,0,8.46,41.39A82.23,82.23,0,0,1,135.49,242,81.35,81.35,0,0,1,150,212.84,81.35,81.35,0,0,1,164.51,242a82.23,82.23,0,0,1,29.31,11.27,300.78,300.78,0,0,0,8.46-41.39Z" transform="translate(-67.12)" style="fill: #f1f2f2"/>
          </g>
        </g>
        <path d="M166.25,259.91a59.26,59.26,0,0,1-1.36,9.32,125.83,125.83,0,0,1,17.37,2.95V259.91Z" transform="translate(-67.12)" style="fill: #f1f2f2"/>
        <path d="M133.75,259.91H120.18V271.6a125.83,125.83,0,0,1,14.92-2.38A60.32,60.32,0,0,1,133.75,259.91Z" transform="translate(-67.12)" style="fill: #f1f2f2"/>
      </g>
      <g>
        <path d="M150,300a80.7,80.7,0,0,0,11.07-18.94H138.93A80.7,80.7,0,0,0,150,300Z" transform="translate(-67.12)" style="fill: #be1e2d"/>
        <path d="M133.75,259.91h32.5c.07-1.15.12-2.31.12-3.49A58.61,58.61,0,0,0,164.51,242a82.88,82.88,0,0,0-29,0,58.61,58.61,0,0,0-1.86,14.38C133.63,257.6,133.68,258.76,133.75,259.91Z" transform="translate(-67.12)" style="fill: #be1e2d"/>
        <path d="M164.51,242A81.35,81.35,0,0,0,150,212.84,81.35,81.35,0,0,0,135.49,242a82.88,82.88,0,0,1,29,0Z" transform="translate(-67.12)" style="fill: #be1e2d"/>
        <path d="M135.1,269.22a147.31,147.31,0,0,1,29.79,0,59.26,59.26,0,0,0,1.36-9.32h-32.5A60.32,60.32,0,0,0,135.1,269.22Z" transform="translate(-67.12)" style="fill: #be1e2d"/>
      </g>
      <path d="M195.24,88.83c-1.34-4.35-2.77-8.6-4.27-12.72-11.58,5.34-25.71,8.48-41,8.48s-29.39-3.14-41-8.48c-1.5,4.12-2.93,8.37-4.27,12.72A112.35,112.35,0,0,0,150,98,112.35,112.35,0,0,0,195.24,88.83Z" transform="translate(-67.12)" style="fill: #262262"/>
      <path d="M191,76.11C174.41,30.53,150,0,150,0s-24.41,30.53-41,76.11c11.58,5.34,25.71,8.48,41,8.48S179.39,81.45,191,76.11Z" transform="translate(-67.12)" style="fill: #be1e2d"/>
    </g>
    <path d="M150,160.23a25.84,25.84,0,1,1,25.84-25.84A25.87,25.87,0,0,1,150,160.23Z" transform="translate(-67.12)" style="fill: #be1e2d"/>
    <circle cx="82.88" cy="134.39" r="21.83" style="fill: #231f20"/>
  </g>
  <path d="M46,182.83" transform="translate(-67.12)" style="fill: #f7941d"/>
  <rect x="30.61" y="165.2" width="104.55" height="46.71" style="fill: #f1f2f2"/>
</svg>
